<svg width="28" height="28" viewBox="0 0 28 28" fill="none" xmlns="http://www.w3.org/2000/svg">
<path d="M12.4312 8.13132L17.0625 12.7626L21.6939 8.13132L22.9312 9.36868L18.2999 14L22.9312 18.6313L21.6939 19.8687L17.0625 15.2374L12.4312 19.8687L11.1938 18.6313L15.8251 14L11.1938 9.36868L12.4312 8.13132Z" fill="#FF9494"/>
<path d="M25.8125 24.5H10.6446C10.4663 24.4997 10.29 24.4632 10.1263 24.3928C9.96251 24.3224 9.81475 24.2195 9.69194 24.0903L0.875 14.7862V13.2138L9.69194 3.90972C9.81475 3.78053 9.96251 3.67761 10.1263 3.60719C10.29 3.53676 10.4663 3.5003 10.6446 3.5H25.8125C26.1605 3.50041 26.4941 3.63882 26.7401 3.88487C26.9862 4.13092 27.1246 4.46453 27.125 4.8125V23.1875C27.1246 23.5355 26.9862 23.8691 26.7401 24.1151C26.4941 24.3612 26.1605 24.4996 25.8125 24.5V24.5ZM25.375 5.25H10.8327L2.625 13.9112V14.0888L10.8327 22.75H25.375V5.25Z" fill="#FF9494"/>
</svg>
